:FULLY-SPECIFIED
:FORCE-ALL-JOINTS-BE-3DOF
:DEGREES
374
root 6.16939 16.5225 -15.8644 9.16341 -17.1023 -6.17667
lfemur -43.1143 21.1224 -10.731
ltibia 68.1965 -0 0
lfoot -11.939 -1.01599 0.00592139
ltoes 14.4469 -0 0
rfemur -23.1189 -3.29819 31.4749
rtibia 40.0595 -0 0
rfoot -22.2785 0.80739 0.0423999
rtoes 17.2207 -0 0
lowerback 5.14434 1.45471 3.31322
upperback 2.64202 2.08351 1.11973
thorax -0.0707562 1.05727 -0.790757
lowerneck -7.78718 -1.25449 2.87091
upperneck -0.876841 -1.97652 2.32206
head 1.01315 -0.950739 0.176575
lclavicle -4.96962e-16 2.8625e-14 0
lhumerus -40.895 -22.082 94.994
lradius 57.5678 -0 0
lwrist 20.8676 0 0
lhand -20.3395 3.76317 -0.0653937
lfingers 7.12502 -0 0
lthumb 6.01469 33.7136 -0.0486029
rclavicle -4.96962e-16 2.8625e-14 0
rhumerus -37.7701 12.5419 -93.6349
rradius 61.2419 -0 0
rwrist 7.89322 0 0
rhand -8.29641 -19.5168 -0.664975
rfingers 7.12502 -0 0
rthumb 17.6303 -48.9656 -0.631485
375
root 6.12191 16.5263 -15.7245 9.21866 -17.7551 -6.37379
lfemur -43.2788 20.1702 -10.6527
ltibia 65.0489 -0 0
lfoot -11.638 0.261154 0.0444762
ltoes 14.6724 -0 0
rfemur -21.948 -2.61282 31.5943
rtibia 39.2693 -0 0
rfoot -22.8629 0.838192 0.0526652
rtoes 17.1072 -0 0
lowerback 5.06717 1.59323 3.51345
upperback 2.6058 2.27438 1.07482
thorax -0.0441384 1.15431 -0.953624
lowerneck -7.675 -1.18329 3.02734
upperneck -0.774446 -1.89221 2.24088
head 1.02404 -0.90873 0.128203
lclavicle -4.96962e-16 2.8625e-14 0
lhumerus -40.8143 -22.0489 94.6699
lradius 57.253 -0 0
lwrist 20.6073 0 0
lhand -20.3113 3.75092 -0.0650893
lfingers 7.12502 -0 0
lthumb 6.04189 33.7003 -0.0484067
rclavicle -4.96962e-16 2.8625e-14 0
rhumerus -37.9345 12.9322 -93.7792
rradius 60.6065 -0 0
rwrist 8.20639 0 0
rhand -8.5072 -19.3696 -0.66055
rfingers 7.12502 -0 0
rthumb 17.4273 -48.832 -0.627013
376
root 6.07462 16.5296 -15.5829 9.26569 -18.3836 -6.56384
lfemur -43.3292 19.1376 -10.5278
ltibia 61.7145 -0 0
lfoot -11.2445 1.63066 0.0812365
ltoes 14.9184 -0 0
rfemur -20.777 -1.959 31.7047
rtibia 38.4981 -0 0
rfoot -23.4243 0.858739 0.062026
rtoes 16.9568 -0 0
lowerback 4.97246 1.73435 3.70925
upperback 2.56507 2.46737 1.02669
thorax -0.0114698 1.2526 -1.11738
lowerneck -7.55473 -1.12062 3.18338
upperneck -0.656909 -1.81872 2.16358
head 1.03898 -0.871922 0.0806634
lclavicle -4.96962e-16 2.8625e-14 0
lhumerus -40.7483 -22.0248 94.3634
lradius 56.9145 -0 0
lwrist 20.3231 0 0
lhand -20.2217 3.75708 -0.0615668
lfingers 7.12502 -0 0
lthumb 6.1283 33.7009 -0.0458161
rclavicle -4.96962e-16 2.8625e-14 0
rhumerus -38.1122 13.325 -93.9225
rradius 59.9981 -0 0
rwrist 8.52755 0 0
rhand -8.85114 -19.2992 -0.623429
rfingers 7.12502 -0 0
rthumb 17.0958 -48.7748 -0.591501
377
root 6.02748 16.5326 -15.4399 9.30313 -18.9929 -6.74452
lfemur -43.283 18.0473 -10.3677
ltibia 58.2715 -0 0
lfoot -10.7811 3.06007 0.111123
ltoes 15.1673 -0 0
rfemur -19.6288 -1.3514 31.8044
rtibia 37.7771 -0 0
rfoot -23.9419 0.868222 0.069766
rtoes 16.7897 -0 0
lowerback 4.86502 1.87713 3.89652
upperback 2.5208 2.66112 0.975282
thorax 0.0251055 1.35141 -1.27979
lowerneck -7.4292 -1.06443 3.33873
upperneck -0.526516 -1.75337 2.09038
head 1.05767 -0.838959 0.0341736
lclavicle -4.96962e-16 2.8625e-14 0
lhumerus -40.6975 -22.0063 94.0757
lradius 56.5595 -0 0
lwrist 20.0237 0 0
lhand -20.0816 3.7782 -0.0555355
lfingers 7.12502 -0 0
lthumb 6.26331 33.713 -0.0413539
rclavicle -4.96962e-16 2.8625e-14 0
rhumerus -38.3022 13.7121 -94.0625
rradius 59.421 -0 0
rwrist 8.84966 0 0
rhand -9.30054 -19.29 -0.560941
rfingers 7.12502 -0 0
rthumb 16.6624 -48.7789 -0.531951
378
root 5.98044 16.5351 -15.2959 9.3296 -19.5881 -6.91348
lfemur -43.1568 16.9218 -10.183
ltibia 54.7983 -0 0
lfoot -10.2705 4.51684 0.130417
ltoes 15.4016 -0 0
rfemur -18.5268 -0.804579 31.8906
rtibia 37.1375 -0 0
rfoot -24.3946 0.865848 0.075168
rtoes 16.6263 -0 0
lowerback 4.7496 2.02054 4.07122
upperback 2.47392 2.85429 0.92055
thorax 0.0634548 1.45002 -1.43864
lowerneck -7.30123 -1.01264 3.49311
upperneck -0.385562 -1.69347 2.02152
head 1.07981 -0.808486 -0.0110491
lclavicle -4.96962e-16 2.8625e-14 0
lhumerus -40.6623 -21.9902 93.8078
lradius 56.195 -0 0
lwrist 19.7178 0 0
lhand -19.9021 3.81086 -0.0477261
lfingers 7.12502 -0 0
lthumb 6.43628 33.7339 -0.0355598
rclavicle -4.96962e-16 2.8625e-14 0
rhumerus -38.5034 14.085 -94.1969
rradius 58.8795 -0 0
rwrist 9.16565 0 0
rhand -9.8278 -19.3267 -0.480584
rfingers 7.12502 -0 0
rthumb 16.1538 -48.8286 -0.455515
379
root 5.93347 16.537 -15.1513 9.3437 -20.1742 -7.06839
lfemur -42.9667 15.7837 -9.98382
ltibia 51.3733 -0 0
lfoot -9.73567 5.96835 0.137012
ltoes 15.6038 -0 0
rfemur -17.4942 -0.332937 31.9594
rtibia 36.6103 -0 0
rfoot -24.7614 0.85083 0.0775391
rtoes 16.4867 -0 0
lowerback 4.63094 2.16352 4.22931
upperback 2.42539 3.04551 0.862465
thorax 0.101457 1.5477 -1.59172
lowerneck -7.17361 -0.963173 3.64626
upperneck -0.23635 -1.63634 1.95723
head 1.10508 -0.77915 -0.0547873
lclavicle -4.96962e-16 2.8625e-14 0
lhumerus -40.6434 -21.973 93.5606
lradius 55.8279 -0 0
lwrist 19.414 0 0
lhand -19.6943 3.85162 -0.0388637
lfingers 7.12502 -0 0
lthumb 6.63658 33.761 -0.0289714
rclavicle -4.96962e-16 2.8625e-14 0
rhumerus -38.7144 14.4355 -94.3232
rradius 58.3779 -0 0
rwrist 9.46849 0 0
rhand -10.4053 -19.3939 -0.389772
rfingers 7.12502 -0 0
rthumb 15.5967 -48.9087 -0.369251
380
root 5.88651 16.5384 -15.0062 9.34401 -20.7562 -7.20687
lfemur -42.7279 14.6557 -9.77937
ltibia 48.0749 -0 0
lfoot -9.19944 7.38194 0.130551
ltoes 15.7564 -0 0
rfemur -16.5545 0.049204 32.0065
rtibia 36.2269 -0 0
rfoot -25.0212 0.82238 0.0762387
rtoes 16.3914 -0 0
lowerback 4.51375 2.30495 4.36679
upperback 2.37616 3.23345 0.801
thorax 0.137002 1.64367 -1.7368
lowerneck -7.04915 -0.913924 3.7979
upperneck -0.0811876 -1.5793 1.89775
head 1.13317 -0.749596 -0.0968229
lclavicle -4.96962e-16 2.8625e-14 0
lhumerus -40.6411 -21.9514 93.3352
lradius 55.4654 -0 0
lwrist 19.1209 0 0
lhand -19.4691 3.89704 -0.0296492
lfingers 7.12502 -0 0
lthumb 6.85358 33.7917 -0.0221101
rclavicle -4.96962e-16 2.8625e-14 0
rhumerus -38.9342 14.7552 -94.4389
rradius 57.9205 -0 0
rwrist 9.75111 0 0
rhand -11.0054 -19.4759 -0.295654
rfingers 7.12502 -0 0
rthumb 15.0177 -49.0034 -0.279949
381
root 5.83952 16.539 -14.8611 9.32907 -21.3392 -7.32649
lfemur -42.4548 13.5606 -9.57782
ltibia 44.9813 -0 0
lfoot -8.68476 8.72494 0.112411
ltoes 15.8419 -0 0
rfemur -15.7309 0.327576 32.0271
rtibia 36.0184 -0 0
rfoot -25.153 0.779696 0.0707086
rtoes 16.3606 -0 0
lowerback 4.40272 2.44368 4.47969
upperback 2.32721 3.41675 0.736142
thorax 0.167991 1.73717 -1.87171
lowerneck -6.93062 -0.862773 3.94775
upperneck 0.07761 -1.51969 1.84334
head 1.16378 -0.718473 -0.136937
lclavicle -4.96962e-16 2.8625e-14 0
lhumerus -40.6562 -21.9221 93.1326
lradius 55.1144 -0 0
lwrist 18.8474 0 0
lhand -19.2377 3.94366 -0.0207454
lfingers 7.12502 -0 0
lthumb 7.07665 33.8234 -0.015471
rclavicle -4.96962e-16 2.8625e-14 0
rhumerus -39.1613 15.036 -94.5412
rradius 57.5118 -0 0
rwrist 10.0065 0 0
rhand -11.6003 -19.5567 -0.205004
rfingers 7.12502 -0 0
rthumb 14.4437 -49.0969 -0.194029
382
root 5.79246 16.5388 -14.7163 9.29739 -21.9283 -7.42481
lfemur -42.1612 12.5212 -9.38642
ltibia 42.171 -0 0
lfoot -8.21442 9.96477 0.0855679
ltoes 15.8428 -0 0
rfemur -15.0469 0.48788 32.0161
rtibia 36.016 -0 0
rfoot -25.1359 0.72195 0.060507
rtoes 16.4147 -0 0
lowerback 4.30252 2.57854 4.56405
upperback 2.27948 3.59406 0.667883
thorax 0.192333 1.82743 -1.99424
lowerneck -6.82081 -0.807588 4.09556
upperneck 0.237724 -1.45487 1.79426
head 1.19658 -0.68443 -0.174909
lclavicle -4.96962e-16 2.8625e-14 0
lhumerus -40.6891 -21.8816 92.954
lradius 54.7821 -0 0
lwrist 18.6019 0 0
lhand -19.011 3.98804 -0.0127711
lfingers 7.12502 -0 0
lthumb 7.29516 33.8536 -0.0095186
rclavicle -4.96962e-16 2.8625e-14 0
rhumerus -39.3943 15.2696 -94.6274
rradius 57.156 -0 0
rwrist 10.2275 0 0
rhand -12.1624 -19.6202 -0.124196
rfingers 7.12502 -0 0
rthumb 13.9014 -49.1731 -0.117509
